<svg width="18" height="16" viewBox="0 0 18 16" fill="none" xmlns="http://www.w3.org/2000/svg">
<g id="Group">
<path id="Vector" d="M16.685 4.5125L9.10625 0.42275C8.8835 0.30275 8.61575 0.30275 8.39375 0.42275L0.818748 4.5125C0.454248 4.7105 0.318498 5.165 0.514998 5.5295C0.649998 5.78075 0.908749 5.92325 1.175 5.92325C1.295 5.92325 1.418 5.89475 1.53125 5.83325L2.08175 5.53625L3.27425 13.9738C3.43625 14.8842 4.25675 15.5203 5.26925 15.5203H12.2307C13.2432 15.5203 14.0637 14.8842 14.2272 13.9542L15.4182 5.5355L15.971 5.834C16.3347 6.03125 16.79 5.8955 16.9865 5.531C17.1838 5.1665 17.0465 4.71125 16.6835 4.51475L16.685 4.5125ZM8.75 10.5763C7.40375 10.5763 6.3125 9.485 6.3125 8.13875C6.3125 6.7925 7.40375 5.70125 8.75 5.70125C10.0962 5.70125 11.1875 6.7925 11.1875 8.13875C11.1875 9.485 10.0962 10.5763 8.75 10.5763Z" fill="white"/>
</g>
</svg>
